<svg width="1056.786083984375px" height="120.8px" xmlns="http://www.w3.org/2000/svg" viewBox="-278.3930419921875 14.600000000000001 1056.786083984375 120.8" style="background: rgba(0, 0, 0, 0);" preserveAspectRatio="xMidYMid"><defs><linearGradient id="editing-shiny-gradient" x1="0.04322727117869957" x2="0.9567727288213004" y1="0.2966316784620999" y2="0.7033683215379001" gradientUnits="objectBoundingBox"><stop offset="0.0" stop-color="#ffb200"></stop><stop offset="0.5" stop-color="#e10057"></stop><stop offset="1.0" stop-color="#5A1A80"></stop></linearGradient><linearGradient id="editing-shiny-gradient2" x1="0" x2="0" y1="0" y2="1"><stop offset="0.2" stop-color="#fff" stop-opacity="0.8"></stop><stop offset="0.8" stop-color="#fff" stop-opacity="0"></stop></linearGradient><filter id="editing-shiny2" x="-100%" y="-100%" width="300%" height="300%"><feMorphology operator="erode" radius="2"></feMorphology></filter><filter id="editing-shiny" x="-100%" y="-100%" width="300%" height="300%"><feFlood flood-color="#fff" result="flood"></feFlood><feConvolveMatrix in="SourceGraphic" result="conv" order="8,8" divisor="1" kernelMatrix="0 0 0 0 0 0 0 0 0 0 0 1 1 0 0 0 0 0 0 1 1 0 0 0 0 0 1 0 0 1 0 0 0 0 1 0 0 1 0 0 0 1 0 0 0 0 1 0 0 1 1 0 0 1 1 0 0 0 0 1 1 0 0 0 "></feConvolveMatrix><feOffset dx="0" dy="4" in="conv" result="offset"></feOffset><feComposite operator="in" in="flood" in2="offset" result="comp"></feComposite><feGaussianBlur in="offset" stdDeviation="3" result="shadow"></feGaussianBlur><feColorMatrix in="shadow" type="matrix" values="0.7 0 0 0 0  0 0.7 0 0 0  0 0 0.7 0 0  0 0 0 0.3 0" result="dark-shadow"></feColorMatrix><feOffset dx="0" dy="4" in="dark-shadow" result="offset-shadow"></feOffset><feOffset dx="0" dy="2" in="conv" result="offset-2"></feOffset><feComposite operator="out" in="offset" in2="offset-2" result="edge-diff"></feComposite><feGaussianBlur in="edge-diff" stdDeviation="1" result="edge-blur"></feGaussianBlur><feColorMatrix in="edge-blur" result="edge-shadow" type="matrix" values="0 0 0 0 0  0 0 0 0 0  0 0 0 0 0  0 0 0 0.5 0"></feColorMatrix><feComposite operator="in" in="edge-shadow" in2="offset" result="edge-shadow-in"></feComposite><feOffset dx="0" dy="1" in="edge-shadow-in" result="edge-shadow-final"></feOffset><feMerge result="out"><feMergeNode in="offset-shadow"></feMergeNode><feMergeNode in="comp"></feMergeNode><feMergeNode in="edge-shadow-final"></feMergeNode><feMergeNode in="SourceGraphic"></feMergeNode></feMerge></filter></defs><g filter="url(#editing-shiny)"><g transform="translate(-130.98282897472382, 98.68000030517578)"><path d="M26.05-29.57L26.05-29.57L26.05-29.57Q27.01-31.49 27.01-33.28L27.01-33.28L27.01-33.28Q27.01-35.07 26.82-36.06L26.82-36.06L26.82-36.06Q26.62-37.06 26.18-37.82L26.18-37.82L26.18-37.82Q25.22-39.49 23.30-39.49L23.30-39.49L23.30-39.49Q20.93-39.49 19.01-37.76L19.01-37.76L19.01-37.76Q16.96-35.97 16.96-33.15L16.96-33.15L16.96-33.15Q16.96-31.36 18.21-29.98L18.21-29.98L18.21-29.98Q19.46-28.61 21.38-27.33L21.38-27.33L21.38-27.33Q23.30-26.05 25.47-24.77L25.47-24.77L25.47-24.77Q27.65-23.49 29.57-21.95L29.57-21.95L29.57-21.95Q33.98-18.43 33.98-13.70L33.98-13.70L33.98-13.70Q33.98-10.50 32.29-7.78L32.29-7.78L32.29-7.78Q30.59-5.06 27.78-3.07L27.78-3.07L27.78-3.07Q21.63 1.28 13.50 1.28L13.50 1.28L13.50 1.28Q6.91 1.28 3.52-0.86L3.52-0.86L3.52-0.86Q0.13-3.01 0.13-6.27L0.13-6.27L0.13-6.27Q0.13-12.10 4.67-13.57L4.67-13.57L4.67-13.57Q5.95-14.02 7.90-14.02L7.90-14.02L7.90-14.02Q9.86-14.02 12.10-13.18L12.10-13.18L12.10-13.18Q11.07-10.56 11.07-8.19L11.07-8.19L11.07-8.19Q11.07-3.07 14.72-3.07L14.72-3.07L14.72-3.07Q17.09-3.07 19.04-4.80L19.04-4.80L19.04-4.80Q20.99-6.53 20.99-8.48L20.99-8.48L20.99-8.48Q20.99-10.43 19.74-11.84L19.74-11.84L19.74-11.84Q18.50-13.25 16.64-14.37L16.64-14.37L16.64-14.37Q14.78-15.49 12.64-16.58L12.64-16.58L12.64-16.58Q10.50-17.66 8.64-19.20L8.64-19.20L8.64-19.20Q4.29-22.72 4.29-28.35L4.29-28.35L4.29-28.35Q4.29-32 6.08-34.85L6.08-34.85L6.08-34.85Q7.87-37.70 10.75-39.62L10.75-39.62L10.75-39.62Q16.51-43.52 23.58-43.52L23.58-43.52L23.58-43.52Q30.66-43.52 34.08-41.41L34.08-41.41L34.08-41.41Q37.50-39.30 37.50-35.71L37.50-35.71L37.50-35.71Q37.50-32.58 35.07-30.59L35.07-30.59L35.07-30.59Q32.96-28.93 30.40-28.93L30.40-28.93L30.40-28.93Q27.84-28.93 26.05-29.57ZM54.14-3.52L54.14-3.52L54.14-3.52Q52.16 1.28 45.82 1.28L45.82 1.28L45.82 1.28Q42.62 1.28 40.58-0.96L40.58-0.96L40.58-0.96Q38.91-2.82 38.91-4.93L38.91-4.93L38.91-4.93Q38.91-9.73 41.15-20.22L41.15-20.22L45.82-44.80L58.82-46.08L52.61-13.70L52.61-13.70Q51.52-8.96 51.52-7.30L51.52-7.30L51.52-7.30Q51.52-3.65 54.14-3.52ZM73.54 1.28L73.54 1.28L73.54 1.28Q59.46 1.28 59.46-11.97L59.46-11.97L59.46-11.97Q59.46-21.38 64.64-27.46L64.64-27.46L64.64-27.46Q70.14-33.92 79.68-33.92L79.68-33.92L79.68-33.92Q86.59-33.92 90.11-30.72L90.11-30.72L90.11-30.72Q93.63-27.52 93.63-20.80L93.63-20.80L93.63-20.80Q93.63-10.56 88.13-4.61L88.13-4.61L88.13-4.61Q82.75 1.28 73.54 1.28ZM75.20-26.56L75.20-26.56L75.20-26.56Q74.43-24.83 73.82-22.24L73.82-22.24L73.82-22.24Q73.22-19.65 72.45-15.55L72.45-15.55L72.45-15.55Q71.68-11.46 71.68-6.40L71.68-6.40L71.68-6.40Q71.68-4.74 72.22-3.65L72.22-3.65L72.22-3.65Q72.77-2.56 74.24-2.56L74.24-2.56L74.24-2.56Q75.71-2.56 76.64-3.26L76.64-3.26L76.64-3.26Q77.57-3.97 78.27-5.63L78.27-5.63L78.27-5.63Q79.55-8.58 80.58-14.05L80.58-14.05L80.58-14.05Q81.60-19.52 81.70-21.89L81.70-21.89L81.70-21.89Q81.79-24.26 81.79-26.02L81.79-26.02L81.79-26.02Q81.79-27.78 81.28-28.93L81.28-28.93L81.28-28.93Q80.77-30.08 79.33-30.08L79.33-30.08L79.33-30.08Q77.89-30.08 76.93-29.18L76.93-29.18L76.93-29.18Q75.97-28.29 75.20-26.56ZM145.15-10.69L145.15-10.69Q140.93-4.86 136.86-1.79L136.86-1.79L136.86-1.79Q132.80 1.28 128.61 1.28L128.61 1.28L128.61 1.28Q124.42 1.28 122.94 0.45L122.94 0.45L122.94-13.63L122.94-13.63Q119.30-3.90 112.77-0.13L112.77-0.13L112.77-0.13Q110.40 1.28 108.16 1.28L108.16 1.28L108.16 1.28Q103.87 1.28 102.02 0.45L102.02 0.45L102.02 0.45Q101.57-14.21 101.18-18.27L101.18-18.27L101.18-18.27Q100.80-22.34 100.48-24.83L100.48-24.83L100.48-24.83Q99.84-29.82 97.66-31.87L97.66-31.87L97.66-31.87Q100.42-33.92 104.26-33.92L104.26-33.92L104.26-33.92Q111.68-33.92 112.70-24.70L112.70-24.70L112.70-24.70Q112.96-22.53 112.96-20.22L112.96-20.22L112.96-20.22Q112.96-16.77 112.19-4.74L112.19-4.74L112.19-4.74Q113.73-5.44 115.36-7.97L115.36-7.97L115.36-7.97Q116.99-10.50 118.34-13.95L118.34-13.95L118.34-13.95Q121.34-21.95 121.34-28.86L121.34-28.86L121.34-28.86Q121.34-29.95 121.06-31.10L121.06-31.10L121.06-31.10Q120.77-32.26 120.45-32.58L120.45-32.58L120.45-32.58Q122.69-33.92 126.11-33.92L126.11-33.92L126.11-33.92Q129.54-33.92 131.17-31.58L131.17-31.58L131.17-31.58Q132.80-29.25 133.25-24.96L133.25-24.96L133.25-24.96Q133.76-19.52 133.76-16.26L133.76-16.26L133.76-16.26Q133.76-11.71 133.31-4.99L133.31-4.99L133.31-4.99Q136.51-7.30 139.14-14.85L139.14-14.85L139.14-14.85Q141.76-22.40 141.76-27.78L141.76-27.78L141.76-27.78Q141.76-30.14 141.38-31.55L141.38-31.55L141.38-31.55Q143.49-33.92 147.14-33.92L147.14-33.92L147.14-33.92Q149.38-33.92 151.01-32.70L151.01-32.70L151.01-32.70Q152.64-31.49 152.64-29.22L152.64-29.22L152.64-29.22Q152.64-26.94 151.97-24.51L151.97-24.51L151.97-24.51Q151.30-22.08 150.21-19.58L150.21-19.58L150.21-19.58Q148.10-14.59 145.15-10.69L145.15-10.69ZM176.26-12.16L167.10-12.16L167.10-12.16Q166.85-12.93 166.85-14.50L166.85-14.50L166.85-14.50Q166.85-16.06 168.16-17.38L168.16-17.38L168.16-17.38Q169.47-18.69 171.52-18.69L171.52-18.69L177.47-18.69L178.75-25.54L178.75-25.54Q179.20-27.52 180.58-28.67L180.58-28.67L180.58-28.67Q181.95-29.82 183.68-29.82L183.68-29.82L183.68-29.82Q185.41-29.82 186.56-29.38L186.56-29.38L184.51-18.69L194.05-18.69L194.24-17.66L194.24-17.66Q194.37-17.22 194.37-16.77L194.37-16.77L194.37-16.77Q194.37-14.59 192.90-13.38L192.90-13.38L192.90-13.38Q191.42-12.16 188.99-12.16L188.99-12.16L183.23-12.16L181.70-4.29L181.70-4.29Q180.86-0.38 176.77-0.38L176.77-0.38L176.77-0.38Q175.30-0.38 173.95-0.83L173.95-0.83L176.26-12.16ZM224.13 0L210.43 0L218.24-42.05L218.24-42.05Q224.58-42.75 233.82-42.75L233.82-42.75L233.82-42.75Q243.07-42.75 247.36-40.06L247.36-40.06L247.36-40.06Q251.65-37.38 251.65-31.97L251.65-31.97L251.65-31.97Q251.65-26.56 248.86-23.17L248.86-23.17L248.86-23.17Q246.08-19.78 241.28-18.69L241.28-18.69L241.28-18.69Q242.37-13.38 244.86-9.09L244.86-9.09L244.86-9.09Q247.17-5.06 249.86-3.78L249.86-3.78L249.86-3.78Q248.90-1.09 246.94 0.10L246.94 0.10L246.94 0.10Q244.99 1.28 242.21 1.28L242.21 1.28L242.21 1.28Q239.42 1.28 237.25-0.35L237.25-0.35L237.25-0.35Q235.07-1.98 233.34-4.99L233.34-4.99L233.34-4.99Q229.70-11.52 229.31-21.82L229.31-21.82L229.76-21.82L229.76-21.82Q234.50-21.95 236.86-24.42L236.86-24.42L236.86-24.42Q239.23-26.88 239.23-32.06L239.23-32.06L239.23-32.06Q239.23-38.53 233.79-38.78L233.79-38.78L232.38-38.78L232.38-38.78Q231.81-38.78 231.49-38.72L231.49-38.72L224.13 0ZM280.51-10.82L280.51-10.82L280.51-10.82Q282.11-9.73 282.11-7.33L282.11-7.33L282.11-7.33Q282.11-4.93 280.90-3.39L280.90-3.39L280.90-3.39Q279.68-1.86 277.70-0.83L277.70-0.83L277.70-0.83Q273.60 1.28 269.18 1.28L269.18 1.28L269.18 1.28Q264.77 1.28 262.18 0.32L262.18 0.32L262.18 0.32Q259.58-0.64 257.86-2.43L257.86-2.43L257.86-2.43Q254.46-5.82 254.46-12.03L254.46-12.03L254.46-12.03Q254.46-21.70 259.71-27.58L259.71-27.58L259.71-27.58Q265.34-33.92 275.14-33.92L275.14-33.92L275.14-33.92Q281.22-33.92 284.22-31.36L284.22-31.36L284.22-31.36Q286.46-29.44 286.46-26.30L286.46-26.30L286.46-26.30Q286.46-15.04 267.01-15.04L267.01-15.04L267.01-15.04Q266.75-13.38 266.75-11.97L266.75-11.97L266.75-11.97Q266.75-9.02 268.06-7.90L268.06-7.90L268.06-7.90Q269.38-6.78 271.81-6.78L271.81-6.78L271.81-6.78Q274.24-6.78 276.83-7.90L276.83-7.90L276.83-7.90Q279.42-9.02 280.51-10.82ZM267.46-17.79L267.46-17.79L267.46-17.79Q272-17.79 274.62-20.61L274.62-20.61L274.62-20.61Q277.25-23.30 277.25-27.58L277.25-27.58L277.25-27.58Q277.25-29.06 276.70-29.86L276.70-29.86L276.70-29.86Q276.16-30.66 275.07-30.66L275.07-30.66L275.07-30.66Q273.98-30.66 273.06-30.24L273.06-30.24L273.06-30.24Q272.13-29.82 271.17-28.42L271.17-28.42L271.17-28.42Q268.80-25.22 267.46-17.79ZM311.87-31.55L311.87-31.55L311.87-31.55Q313.98-33.92 317.63-33.92L317.63-33.92L317.63-33.92Q319.87-33.92 321.60-32.70L321.60-32.70L321.60-32.70Q323.33-31.49 323.33-29.22L323.33-29.22L323.33-29.22Q323.33-26.94 322.62-24.51L322.62-24.51L322.62-24.51Q321.92-22.08 320.83-19.58L320.83-19.58L320.83-19.58Q318.66-14.72 315.65-10.69L315.65-10.69L315.65-10.69Q311.42-4.86 307.36-1.79L307.36-1.79L307.36-1.79Q303.30 1.28 298.88 1.28L298.88 1.28L298.88 1.28Q295.30 1.28 293.12 0.45L293.12 0.45L293.12 0.45Q292.74-12.99 292.26-17.79L292.26-17.79L292.26-17.79Q291.78-22.59 291.39-25.22L291.39-25.22L291.39-25.22Q290.75-30.34 288.83-31.55L288.83-31.55L288.83-31.55Q290.30-32.83 291.74-33.38L291.74-33.38L291.74-33.38Q293.18-33.92 296.16-33.92L296.16-33.92L296.16-33.92Q299.14-33.92 301.25-31.58L301.25-31.58L301.25-31.58Q303.36-29.25 303.78-25.12L303.78-25.12L303.78-25.12Q304.19-20.99 304.19-16L304.19-16L304.19-16Q304.19-11.01 303.81-4.99L303.81-4.99L303.81-4.99Q305.79-6.40 307.90-10.69L307.90-10.69L307.90-10.69Q310.78-16.64 311.81-23.81L311.81-23.81L311.81-23.81Q312.13-25.98 312.13-28.29L312.13-28.29L312.13-28.29Q312.13-30.59 311.87-31.55ZM350.98-10.82L350.98-10.82L350.98-10.82Q352.58-9.73 352.58-7.33L352.58-7.33L352.58-7.33Q352.58-4.93 351.36-3.39L351.36-3.39L351.36-3.39Q350.14-1.86 348.16-0.83L348.16-0.83L348.16-0.83Q344.06 1.28 339.65 1.28L339.65 1.28L339.65 1.28Q335.23 1.28 332.64 0.32L332.64 0.32L332.64 0.32Q330.05-0.64 328.32-2.43L328.32-2.43L328.32-2.43Q324.93-5.82 324.93-12.03L324.93-12.03L324.93-12.03Q324.93-21.70 330.18-27.58L330.18-27.58L330.18-27.58Q335.81-33.92 345.60-33.92L345.60-33.92L345.60-33.92Q351.68-33.92 354.69-31.36L354.69-31.36L354.69-31.36Q356.93-29.44 356.93-26.30L356.93-26.30L356.93-26.30Q356.93-15.04 337.47-15.04L337.47-15.04L337.47-15.04Q337.22-13.38 337.22-11.97L337.22-11.97L337.22-11.97Q337.22-9.02 338.53-7.90L338.53-7.90L338.53-7.90Q339.84-6.78 342.27-6.78L342.27-6.78L342.27-6.78Q344.70-6.78 347.30-7.90L347.30-7.90L347.30-7.90Q349.89-9.02 350.98-10.82ZM337.92-17.79L337.92-17.79L337.92-17.79Q342.46-17.79 345.09-20.61L345.09-20.61L345.09-20.61Q347.71-23.30 347.71-27.58L347.71-27.58L347.71-27.58Q347.71-29.06 347.17-29.86L347.17-29.86L347.17-29.86Q346.62-30.66 345.54-30.66L345.54-30.66L345.54-30.66Q344.45-30.66 343.52-30.24L343.52-30.24L343.52-30.24Q342.59-29.82 341.63-28.42L341.63-28.42L341.63-28.42Q339.26-25.22 337.92-17.79ZM379.14-17.98L379.14-17.98L379.14-17.98Q381.44-22.08 381.44-26.24L381.44-26.24L381.44-26.24Q381.44-28.99 379.46-28.99L379.46-28.99L379.46-28.99Q377.92-28.99 376.32-26.37L376.32-26.37L376.32-26.37Q374.66-23.74 374.14-20.35L374.14-20.35L370.82 0L357.57 1.28L364.10-32.64L374.66-33.92L373.50-27.46L373.50-27.46Q376.64-33.92 383.68-33.92L383.68-33.92L383.68-33.92Q387.39-33.92 389.41-32L389.41-32L389.41-32Q391.42-30.08 391.42-26.14L391.42-26.14L391.42-26.14Q391.42-22.21 388.83-19.71L388.83-19.71L388.83-19.71Q386.24-17.22 381.82-17.22L381.82-17.22L381.82-17.22Q379.90-17.22 379.14-17.98ZM391.62-3.07L391.62-3.07L399.55-44.80L412.54-46.08L410.56-36.29L410.56-36.29Q409.86-33.28 408.96-31.17L408.96-31.17L408.96-31.17Q410.37-32.96 413.44-33.66L413.44-33.66L413.44-33.66Q414.34-33.92 415.42-33.92L415.42-33.92L415.42-33.92Q421.38-33.92 424.64-30.30L424.64-30.30L424.64-30.30Q427.90-26.69 427.90-19.71L427.90-19.71L427.90-19.71Q427.90-10.62 422.72-4.93L422.72-4.93L422.72-4.93Q417.15 1.28 407.04 1.28L407.04 1.28L407.04 1.28Q400.06 1.28 394.82-1.02L394.82-1.02L394.82-1.02Q392.96-1.86 391.62-3.07ZM407.87-22.40L404.48-3.65L404.48-3.65Q405.82-2.50 407.49-2.50L407.49-2.50L407.49-2.50Q409.15-2.50 410.11-3.14L410.11-3.14L410.11-3.14Q411.07-3.78 411.78-5.06L411.78-5.06L411.78-5.06Q413.70-8.51 415.23-19.07L415.23-19.07L415.23-19.07Q415.68-22.08 415.68-25.09L415.68-25.09L415.68-25.09Q415.68-28.10 415.01-29.06L415.01-29.06L415.01-29.06Q414.34-30.02 413.06-30.02L413.06-30.02L413.06-30.02Q409.15-30.02 407.87-22.40L407.87-22.40ZM470.85-20.61L483.78-21.76L483.78-21.76Q479.17-11.65 479.17 0.06L479.17 0.06L479.17 0.06Q477.44 1.28 474.91 1.28L474.91 1.28L474.91 1.28Q472.38 1.28 470.78 0.10L470.78 0.10L470.78 0.10Q469.18-1.09 468.86-2.30L468.86-2.30L468.86-2.30Q467.26-0.64 464.67 0.32L464.67 0.32L464.67 0.32Q462.08 1.28 459.33 1.28L459.33 1.28L459.33 1.28Q456.58 1.28 454.18 0.38L454.18 0.38L454.18 0.38Q451.78-0.51 449.92-2.50L449.92-2.50L449.92-2.50Q445.82-6.85 445.82-15.10L445.82-15.10L445.82-15.10Q445.82-27.90 452.67-35.58L452.67-35.58L452.67-35.58Q459.71-43.52 472.19-43.52L472.19-43.52L472.19-43.52Q480.83-43.52 483.90-39.04L483.90-39.04L483.90-39.04Q484.86-37.63 484.86-35.94L484.86-35.94L484.86-35.94Q484.86-34.24 484.13-32.80L484.13-32.80L484.13-32.80Q483.39-31.36 482.24-30.21L482.24-30.21L482.24-30.21Q479.49-27.65 476.10-27.65L476.10-27.65L476.10-27.65Q474.75-27.65 473.47-28.10L473.47-28.10L473.47-28.10Q473.73-30.02 473.73-32.26L473.73-32.26L473.73-32.26Q473.73-34.50 473.57-35.52L473.57-35.52L473.57-35.52Q473.41-36.54 473.02-37.38L473.02-37.38L473.02-37.38Q472.19-39.10 470.37-39.10L470.37-39.10L470.37-39.10Q468.54-39.10 466.53-37.15L466.53-37.15L466.53-37.15Q464.51-35.20 462.91-32L462.91-32L462.91-32Q459.39-24.83 459.39-16.19L459.39-16.19L459.39-16.19Q459.39-12.22 460.93-9.41L460.93-9.41L460.93-9.41Q462.59-6.34 465.54-6.34L465.54-6.34L465.54-6.34Q466.56-6.34 467.49-6.85L467.49-6.85L467.49-6.85Q468.42-7.36 468.80-7.74L468.80-7.74L470.85-20.61ZM512.83-10.82L512.83-10.82L512.83-10.82Q514.43-9.73 514.43-7.33L514.43-7.33L514.43-7.33Q514.43-4.93 513.22-3.39L513.22-3.39L513.22-3.39Q512-1.86 510.02-0.83L510.02-0.83L510.02-0.83Q505.92 1.28 501.50 1.28L501.50 1.28L501.50 1.28Q497.09 1.28 494.50 0.32L494.50 0.32L494.50 0.32Q491.90-0.64 490.18-2.43L490.18-2.43L490.18-2.43Q486.78-5.82 486.78-12.03L486.78-12.03L486.78-12.03Q486.78-21.70 492.03-27.58L492.03-27.58L492.03-27.58Q497.66-33.92 507.46-33.92L507.46-33.92L507.46-33.92Q513.54-33.92 516.54-31.36L516.54-31.36L516.54-31.36Q518.78-29.44 518.78-26.30L518.78-26.30L518.78-26.30Q518.78-15.04 499.33-15.04L499.33-15.04L499.33-15.04Q499.07-13.38 499.07-11.97L499.07-11.97L499.07-11.97Q499.07-9.02 500.38-7.90L500.38-7.90L500.38-7.90Q501.70-6.78 504.13-6.78L504.13-6.78L504.13-6.78Q506.56-6.78 509.15-7.90L509.15-7.90L509.15-7.90Q511.74-9.02 512.83-10.82ZM499.78-17.79L499.78-17.79L499.78-17.79Q504.32-17.79 506.94-20.61L506.94-20.61L506.94-20.61Q509.57-23.30 509.57-27.58L509.57-27.58L509.57-27.58Q509.57-29.06 509.02-29.86L509.02-29.86L509.02-29.86Q508.48-30.66 507.39-30.66L507.39-30.66L507.39-30.66Q506.30-30.66 505.38-30.24L505.38-30.24L505.38-30.24Q504.45-29.82 503.49-28.42L503.49-28.42L503.49-28.42Q501.12-25.22 499.78-17.79ZM548.03 1.28L548.03 1.28L548.03 1.28Q540.29 1.28 540.29-4.74L540.29-4.74L540.29-4.74Q540.35-6.40 540.86-9.22L540.86-9.22L542.02-15.10L542.02-15.10Q543.74-23.42 543.74-25.28L543.74-25.28L543.74-25.28Q543.74-28.99 541.57-28.99L541.57-28.99L541.57-28.99Q537.92-28.99 536.00-19.46L536.00-19.46L532.22 0L519.36 1.28L526.02-32.70L536.51-33.92L535.49-27.65L535.49-27.65Q538.50-33.92 547.71-33.92L547.71-33.92L547.71-33.92Q552.19-33.92 554.08-32.03L554.08-32.03L554.08-32.03Q555.97-30.14 555.97-25.92L555.97-25.92L555.97-25.92Q555.97-21.95 553.92-12.67L553.92-12.67L553.92-12.67Q552.96-8.51 552.96-6.94L552.96-6.94L552.96-6.94Q552.96-5.38 553.82-4.48L553.82-4.48L553.82-4.48Q554.69-3.58 555.97-3.46L555.97-3.46L555.97-3.46Q555.33-1.28 553.12 0L553.12 0L553.12 0Q550.91 1.28 548.03 1.28ZM587.01-10.82L587.01-10.82L587.01-10.82Q588.61-9.73 588.61-7.33L588.61-7.33L588.61-7.33Q588.61-4.93 587.39-3.39L587.39-3.39L587.39-3.39Q586.18-1.86 584.19-0.83L584.19-0.83L584.19-0.83Q580.10 1.28 575.68 1.28L575.68 1.28L575.68 1.28Q571.26 1.28 568.67 0.32L568.67 0.32L568.67 0.32Q566.08-0.64 564.35-2.43L564.35-2.43L564.35-2.43Q560.96-5.82 560.96-12.03L560.96-12.03L560.96-12.03Q560.96-21.70 566.21-27.58L566.21-27.58L566.21-27.58Q571.84-33.92 581.63-33.92L581.63-33.92L581.63-33.92Q587.71-33.92 590.72-31.36L590.72-31.36L590.72-31.36Q592.96-29.44 592.96-26.30L592.96-26.30L592.96-26.30Q592.96-15.04 573.50-15.04L573.50-15.04L573.50-15.04Q573.25-13.38 573.25-11.97L573.25-11.97L573.25-11.97Q573.25-9.02 574.56-7.90L574.56-7.90L574.56-7.90Q575.87-6.78 578.30-6.78L578.30-6.78L578.30-6.78Q580.74-6.78 583.33-7.90L583.33-7.90L583.33-7.90Q585.92-9.02 587.01-10.82ZM573.95-17.79L573.95-17.79L573.95-17.79Q578.50-17.79 581.12-20.61L581.12-20.61L581.12-20.61Q583.74-23.30 583.74-27.58L583.74-27.58L583.74-27.58Q583.74-29.06 583.20-29.86L583.20-29.86L583.20-29.86Q582.66-30.66 581.57-30.66L581.57-30.66L581.57-30.66Q580.48-30.66 579.55-30.24L579.55-30.24L579.55-30.24Q578.62-29.82 577.66-28.42L577.66-28.42L577.66-28.42Q575.30-25.22 573.95-17.79ZM615.17-17.98L615.17-17.98L615.17-17.98Q617.47-22.08 617.47-26.24L617.47-26.24L617.47-26.24Q617.47-28.99 615.49-28.99L615.49-28.99L615.49-28.99Q613.95-28.99 612.35-26.37L612.35-26.37L612.35-26.37Q610.69-23.74 610.18-20.35L610.18-20.35L606.85 0L593.60 1.28L600.13-32.64L610.69-33.92L609.54-27.46L609.54-27.46Q612.67-33.92 619.71-33.92L619.71-33.92L619.71-33.92Q623.42-33.92 625.44-32L625.44-32L625.44-32Q627.46-30.08 627.46-26.14L627.46-26.14L627.46-26.14Q627.46-22.21 624.86-19.71L624.86-19.71L624.86-19.71Q622.27-17.22 617.86-17.22L617.86-17.22L617.86-17.22Q615.94-17.22 615.17-17.98ZM631.26-1.92L631.26-1.92L631.26-1.92Q629.76-3.58 629.09-6.21L629.09-6.21L629.09-6.21Q628.42-8.83 628.42-13.12L628.42-13.12L628.42-13.12Q628.42-17.41 629.89-21.31L629.89-21.31L629.89-21.31Q631.36-25.22 634.05-28.03L634.05-28.03L634.05-28.03Q639.55-33.92 648.64-33.92L648.64-33.92L648.64-33.92Q651.90-33.92 654.27-32.83L654.27-32.83L665.22-33.92L660.48-8.96L660.48-8.96Q660.29-8.19 660.29-6.78L660.29-6.78L660.29-6.78Q660.29-5.38 661.15-4.48L661.15-4.48L661.15-4.48Q662.02-3.58 663.30-3.46L663.30-3.46L663.30-3.46Q662.66-1.28 660.32 0L660.32 0L660.32 0Q657.98 1.28 655.36 1.28L655.36 1.28L655.36 1.28Q652.74 1.28 650.98 0.29L650.98 0.29L650.98 0.29Q649.22-0.70 648.70-2.37L648.70-2.37L648.70-2.37Q647.68-0.77 645.50 0.26L645.50 0.26L645.50 0.26Q643.33 1.28 640.42 1.28L640.42 1.28L640.42 1.28Q637.50 1.28 635.14 0.51L635.14 0.51L635.14 0.51Q632.77-0.26 631.26-1.92ZM644.77-27.90L644.77-27.90L644.77-27.90Q644.03-26.75 643.39-24.80L643.39-24.80L643.39-24.80Q642.75-22.85 641.70-17.63L641.70-17.63L641.70-17.63Q640.64-12.42 640.64-8.70L640.64-8.70L640.64-8.70Q640.64-4.99 641.22-3.90L641.22-3.90L641.22-3.90Q641.79-2.82 642.82-2.82L642.82-2.82L642.82-2.82Q644.86-2.82 646.37-4.77L646.37-4.77L646.37-4.77Q647.87-6.72 648.45-10.18L648.45-10.18L651.84-28.93L651.84-28.93Q650.50-30.08 648.93-30.08L648.93-30.08L648.93-30.08Q647.36-30.08 646.43-29.57L646.43-29.57L646.43-29.57Q645.50-29.06 644.77-27.90ZM669.70-6.40L669.70-6.40L669.70-6.40Q669.70-8.13 670.59-12.48L670.59-12.48L673.98-29.76L670.21-29.76L670.46-31.68L670.46-31.68Q678.14-33.98 685.57-39.62L685.57-39.62L688.64-39.62L687.10-32.64L692.10-32.64L691.52-29.76L686.59-29.76L683.33-12.48L683.33-12.48Q682.50-8.51 682.50-7.17L682.50-7.17L682.50-7.17Q682.50-4.10 685.18-3.46L685.18-3.46L685.18-3.46Q684.54-1.28 682.24 0L682.24 0L682.24 0Q679.94 1.28 676.67 1.28L676.67 1.28L676.67 1.28Q673.41 1.28 671.55-0.77L671.55-0.77L671.55-0.77Q669.70-2.82 669.70-6.40ZM705.47 1.28L705.47 1.28L705.47 1.28Q691.39 1.28 691.39-11.97L691.39-11.97L691.39-11.97Q691.39-21.38 696.58-27.46L696.58-27.46L696.58-27.46Q702.08-33.92 711.62-33.92L711.62-33.92L711.62-33.92Q718.53-33.92 722.05-30.72L722.05-30.72L722.05-30.72Q725.57-27.52 725.57-20.80L725.57-20.80L725.57-20.80Q725.57-10.56 720.06-4.61L720.06-4.61L720.06-4.61Q714.69 1.28 705.47 1.28ZM707.14-26.56L707.14-26.56L707.14-26.56Q706.37-24.83 705.76-22.24L705.76-22.24L705.76-22.24Q705.15-19.65 704.38-15.55L704.38-15.55L704.38-15.55Q703.62-11.46 703.62-6.40L703.62-6.40L703.62-6.40Q703.62-4.74 704.16-3.65L704.16-3.65L704.16-3.65Q704.70-2.56 706.18-2.56L706.18-2.56L706.18-2.56Q707.65-2.56 708.58-3.26L708.58-3.26L708.58-3.26Q709.50-3.97 710.21-5.63L710.21-5.63L710.21-5.63Q711.49-8.58 712.51-14.05L712.51-14.05L712.51-14.05Q713.54-19.52 713.63-21.89L713.63-21.89L713.63-21.89Q713.73-24.26 713.73-26.02L713.73-26.02L713.73-26.02Q713.73-27.78 713.22-28.93L713.22-28.93L713.22-28.93Q712.70-30.08 711.26-30.08L711.26-30.08L711.26-30.08Q709.82-30.08 708.86-29.18L708.86-29.18L708.86-29.18Q707.90-28.29 707.14-26.56ZM749.38-17.98L749.38-17.98L749.38-17.98Q751.68-22.08 751.68-26.24L751.68-26.24L751.68-26.24Q751.68-28.99 749.70-28.99L749.70-28.99L749.70-28.99Q748.16-28.99 746.56-26.37L746.56-26.37L746.56-26.37Q744.90-23.74 744.38-20.35L744.38-20.35L741.06 0L727.81 1.28L734.34-32.64L744.90-33.92L743.74-27.46L743.74-27.46Q746.88-33.92 753.92-33.92L753.92-33.92L753.92-33.92Q757.63-33.92 759.65-32L759.65-32L759.65-32Q761.66-30.08 761.66-26.14L761.66-26.14L761.66-26.14Q761.66-22.21 759.07-19.71L759.07-19.71L759.07-19.71Q756.48-17.22 752.06-17.22L752.06-17.22L752.06-17.22Q750.14-17.22 749.38-17.98Z" fill="url(#editing-shiny-gradient)"></path></g></g><g filter="url(#editing-shiny2)"><g transform="translate(-130.7677105665207, 98.68000411987305)"><path d="M26.05-29.57L26.05-29.57L26.05-29.57Q27.01-31.49 27.01-33.28L27.01-33.28L27.01-33.28Q27.01-35.07 26.82-36.06L26.82-36.06L26.82-36.06Q26.62-37.06 26.18-37.82L26.18-37.82L26.18-37.82Q25.22-39.49 23.30-39.49L23.30-39.49L23.30-39.49Q20.93-39.49 19.01-37.76L19.01-37.76L19.01-37.76Q16.96-35.97 16.96-33.15L16.96-33.15L16.96-33.15Q16.96-31.36 18.21-29.98L18.21-29.98L18.21-29.98Q19.46-28.61 21.38-27.33L21.38-27.33L21.38-27.33Q23.30-26.05 25.47-24.77L25.47-24.77L25.47-24.77Q27.65-23.49 29.57-21.95L29.57-21.95L29.57-21.95Q33.98-18.43 33.98-13.70L33.98-13.70L33.98-13.70Q33.98-10.50 32.29-7.78L32.29-7.78L32.29-7.78Q30.59-5.06 27.78-3.07L27.78-3.07L27.78-3.07Q21.63 1.28 13.50 1.28L13.50 1.28L13.50 1.28Q6.91 1.28 3.52-0.86L3.52-0.86L3.52-0.86Q0.13-3.01 0.13-6.27L0.13-6.27L0.13-6.27Q0.13-12.10 4.67-13.57L4.67-13.57L4.67-13.57Q5.95-14.02 7.90-14.02L7.90-14.02L7.90-14.02Q9.86-14.02 12.10-13.18L12.10-13.18L12.10-13.18Q11.07-10.56 11.07-8.19L11.07-8.19L11.07-8.19Q11.07-3.07 14.72-3.07L14.72-3.07L14.72-3.07Q17.09-3.07 19.04-4.80L19.04-4.80L19.04-4.80Q20.99-6.53 20.99-8.48L20.99-8.48L20.99-8.48Q20.99-10.43 19.74-11.84L19.74-11.84L19.74-11.84Q18.50-13.25 16.64-14.37L16.64-14.37L16.64-14.37Q14.78-15.49 12.64-16.58L12.64-16.58L12.64-16.58Q10.50-17.66 8.64-19.20L8.64-19.20L8.64-19.20Q4.29-22.72 4.29-28.35L4.29-28.35L4.29-28.35Q4.29-32 6.08-34.85L6.08-34.85L6.08-34.85Q7.87-37.70 10.75-39.62L10.75-39.62L10.75-39.62Q16.51-43.52 23.58-43.52L23.58-43.52L23.58-43.52Q30.66-43.52 34.08-41.41L34.08-41.41L34.08-41.41Q37.50-39.30 37.50-35.71L37.50-35.71L37.50-35.71Q37.50-32.58 35.07-30.59L35.07-30.59L35.07-30.59Q32.96-28.93 30.40-28.93L30.40-28.93L30.40-28.93Q27.84-28.93 26.05-29.57ZM54.14-3.52L54.14-3.52L54.14-3.52Q52.16 1.28 45.82 1.28L45.82 1.28L45.82 1.28Q42.62 1.28 40.58-0.96L40.58-0.96L40.58-0.96Q38.91-2.82 38.91-4.93L38.91-4.93L38.91-4.93Q38.91-9.73 41.15-20.22L41.15-20.22L45.82-44.80L58.82-46.08L52.61-13.70L52.61-13.70Q51.52-8.96 51.52-7.30L51.52-7.30L51.52-7.30Q51.52-3.65 54.14-3.52ZM73.54 1.28L73.54 1.28L73.54 1.28Q59.46 1.28 59.46-11.97L59.46-11.97L59.46-11.97Q59.46-21.38 64.64-27.46L64.64-27.46L64.64-27.46Q70.14-33.92 79.68-33.92L79.68-33.92L79.68-33.92Q86.59-33.92 90.11-30.72L90.11-30.72L90.11-30.72Q93.63-27.52 93.63-20.80L93.63-20.80L93.63-20.80Q93.63-10.56 88.13-4.61L88.13-4.61L88.13-4.61Q82.75 1.28 73.54 1.28ZM75.20-26.56L75.20-26.56L75.20-26.56Q74.43-24.83 73.82-22.24L73.82-22.24L73.82-22.24Q73.22-19.65 72.45-15.55L72.45-15.55L72.45-15.55Q71.68-11.46 71.68-6.40L71.68-6.40L71.68-6.40Q71.68-4.74 72.22-3.65L72.22-3.65L72.22-3.65Q72.77-2.56 74.24-2.56L74.24-2.56L74.24-2.56Q75.71-2.56 76.64-3.26L76.64-3.26L76.64-3.26Q77.57-3.97 78.27-5.63L78.27-5.63L78.27-5.63Q79.55-8.58 80.58-14.05L80.58-14.05L80.58-14.05Q81.60-19.52 81.70-21.89L81.70-21.89L81.70-21.89Q81.79-24.26 81.79-26.02L81.79-26.02L81.79-26.02Q81.79-27.78 81.28-28.93L81.28-28.93L81.28-28.93Q80.77-30.08 79.33-30.08L79.33-30.08L79.33-30.08Q77.89-30.08 76.93-29.18L76.93-29.18L76.93-29.18Q75.97-28.29 75.20-26.56ZM145.15-10.69L145.15-10.69Q140.93-4.86 136.86-1.79L136.86-1.79L136.86-1.79Q132.80 1.28 128.61 1.28L128.61 1.28L128.61 1.28Q124.42 1.28 122.94 0.45L122.94 0.45L122.94-13.63L122.94-13.63Q119.30-3.90 112.77-0.13L112.77-0.13L112.77-0.13Q110.40 1.28 108.16 1.28L108.16 1.28L108.16 1.28Q103.87 1.28 102.02 0.45L102.02 0.45L102.02 0.45Q101.57-14.21 101.18-18.27L101.18-18.27L101.18-18.27Q100.80-22.34 100.48-24.83L100.48-24.83L100.48-24.83Q99.84-29.82 97.66-31.87L97.66-31.87L97.66-31.87Q100.42-33.92 104.26-33.92L104.26-33.92L104.26-33.92Q111.68-33.92 112.70-24.70L112.70-24.70L112.70-24.70Q112.96-22.53 112.96-20.22L112.96-20.22L112.96-20.22Q112.96-16.77 112.19-4.74L112.19-4.74L112.19-4.74Q113.73-5.44 115.36-7.97L115.36-7.97L115.36-7.97Q116.99-10.50 118.34-13.95L118.34-13.95L118.34-13.95Q121.34-21.95 121.34-28.86L121.34-28.86L121.34-28.86Q121.34-29.95 121.06-31.10L121.06-31.10L121.06-31.10Q120.77-32.26 120.45-32.58L120.45-32.58L120.45-32.58Q122.69-33.92 126.11-33.92L126.11-33.92L126.11-33.92Q129.54-33.92 131.17-31.58L131.17-31.58L131.17-31.58Q132.80-29.25 133.25-24.96L133.25-24.96L133.25-24.96Q133.76-19.52 133.76-16.26L133.76-16.26L133.76-16.26Q133.76-11.71 133.31-4.99L133.31-4.99L133.31-4.99Q136.51-7.30 139.14-14.85L139.14-14.85L139.14-14.85Q141.76-22.40 141.76-27.78L141.76-27.78L141.76-27.78Q141.76-30.14 141.38-31.55L141.38-31.55L141.38-31.55Q143.49-33.92 147.14-33.92L147.14-33.92L147.14-33.92Q149.38-33.92 151.01-32.70L151.01-32.70L151.01-32.70Q152.64-31.49 152.64-29.22L152.64-29.22L152.64-29.22Q152.64-26.94 151.97-24.51L151.97-24.51L151.97-24.51Q151.30-22.08 150.21-19.58L150.21-19.58L150.21-19.58Q148.10-14.59 145.15-10.69L145.15-10.69ZM176.26-12.16L167.10-12.16L167.10-12.16Q166.85-12.93 166.85-14.50L166.85-14.50L166.85-14.50Q166.85-16.06 168.16-17.38L168.16-17.38L168.16-17.38Q169.47-18.69 171.52-18.69L171.52-18.69L177.47-18.69L178.75-25.54L178.75-25.54Q179.20-27.52 180.58-28.67L180.58-28.67L180.58-28.67Q181.95-29.82 183.68-29.82L183.68-29.82L183.68-29.82Q185.41-29.82 186.56-29.38L186.56-29.38L184.51-18.69L194.05-18.69L194.24-17.66L194.24-17.66Q194.37-17.22 194.37-16.77L194.37-16.77L194.37-16.77Q194.37-14.59 192.90-13.38L192.90-13.38L192.90-13.38Q191.42-12.16 188.99-12.16L188.99-12.16L183.23-12.16L181.70-4.29L181.70-4.29Q180.86-0.38 176.77-0.38L176.77-0.38L176.77-0.38Q175.30-0.38 173.95-0.83L173.95-0.83L176.26-12.16ZM224.13 0L210.43 0L218.24-42.05L218.24-42.05Q224.58-42.75 233.82-42.75L233.82-42.75L233.82-42.75Q243.07-42.75 247.36-40.06L247.36-40.06L247.36-40.06Q251.65-37.38 251.65-31.97L251.65-31.97L251.65-31.97Q251.65-26.56 248.86-23.17L248.86-23.17L248.86-23.17Q246.08-19.78 241.28-18.69L241.28-18.69L241.28-18.69Q242.37-13.38 244.86-9.09L244.86-9.09L244.86-9.09Q247.17-5.06 249.86-3.78L249.86-3.78L249.86-3.78Q248.90-1.09 246.94 0.10L246.94 0.10L246.94 0.10Q244.99 1.28 242.21 1.28L242.21 1.28L242.21 1.28Q239.42 1.28 237.25-0.35L237.25-0.35L237.25-0.35Q235.07-1.98 233.34-4.99L233.34-4.99L233.34-4.99Q229.70-11.52 229.31-21.82L229.31-21.82L229.76-21.82L229.76-21.82Q234.50-21.95 236.86-24.42L236.86-24.42L236.86-24.42Q239.23-26.88 239.23-32.06L239.23-32.06L239.23-32.06Q239.23-38.53 233.79-38.78L233.79-38.78L232.38-38.78L232.38-38.78Q231.81-38.78 231.49-38.72L231.49-38.72L224.13 0ZM280.51-10.82L280.51-10.82L280.51-10.82Q282.11-9.73 282.11-7.33L282.11-7.33L282.11-7.33Q282.11-4.93 280.90-3.39L280.90-3.39L280.90-3.39Q279.68-1.86 277.70-0.83L277.70-0.83L277.70-0.83Q273.60 1.28 269.18 1.28L269.18 1.28L269.18 1.28Q264.77 1.28 262.18 0.32L262.18 0.32L262.18 0.32Q259.58-0.64 257.86-2.43L257.86-2.43L257.86-2.43Q254.46-5.82 254.46-12.03L254.46-12.03L254.46-12.03Q254.46-21.70 259.71-27.58L259.71-27.58L259.71-27.58Q265.34-33.92 275.14-33.92L275.14-33.92L275.14-33.92Q281.22-33.92 284.22-31.36L284.22-31.36L284.22-31.36Q286.46-29.44 286.46-26.30L286.46-26.30L286.46-26.30Q286.46-15.04 267.01-15.04L267.01-15.04L267.01-15.04Q266.75-13.38 266.75-11.97L266.75-11.97L266.75-11.97Q266.75-9.02 268.06-7.90L268.06-7.90L268.06-7.90Q269.38-6.78 271.81-6.78L271.81-6.78L271.81-6.78Q274.24-6.78 276.83-7.90L276.83-7.90L276.83-7.90Q279.42-9.02 280.51-10.82ZM267.46-17.79L267.46-17.79L267.46-17.79Q272-17.79 274.62-20.61L274.62-20.61L274.62-20.61Q277.25-23.30 277.25-27.58L277.25-27.58L277.25-27.58Q277.25-29.06 276.70-29.86L276.70-29.86L276.70-29.86Q276.16-30.66 275.07-30.66L275.07-30.66L275.07-30.66Q273.98-30.66 273.06-30.24L273.06-30.24L273.06-30.24Q272.13-29.82 271.17-28.42L271.17-28.42L271.17-28.42Q268.80-25.22 267.46-17.79ZM311.87-31.55L311.87-31.55L311.87-31.55Q313.98-33.92 317.63-33.92L317.63-33.92L317.63-33.92Q319.87-33.92 321.60-32.70L321.60-32.70L321.60-32.70Q323.33-31.49 323.33-29.22L323.33-29.22L323.33-29.22Q323.33-26.94 322.62-24.51L322.62-24.51L322.62-24.51Q321.92-22.08 320.83-19.58L320.83-19.58L320.83-19.58Q318.66-14.72 315.65-10.69L315.65-10.69L315.65-10.69Q311.42-4.86 307.36-1.79L307.36-1.79L307.36-1.79Q303.30 1.28 298.88 1.28L298.88 1.28L298.88 1.28Q295.30 1.28 293.12 0.45L293.12 0.45L293.12 0.45Q292.74-12.99 292.26-17.79L292.26-17.79L292.26-17.79Q291.78-22.59 291.39-25.22L291.39-25.22L291.39-25.22Q290.75-30.34 288.83-31.55L288.83-31.55L288.83-31.55Q290.30-32.83 291.74-33.38L291.74-33.38L291.74-33.38Q293.18-33.92 296.16-33.92L296.16-33.92L296.16-33.92Q299.14-33.92 301.25-31.58L301.25-31.58L301.25-31.58Q303.36-29.25 303.78-25.12L303.78-25.12L303.78-25.12Q304.19-20.99 304.19-16L304.19-16L304.19-16Q304.19-11.01 303.81-4.99L303.81-4.99L303.81-4.99Q305.79-6.40 307.90-10.69L307.90-10.69L307.90-10.69Q310.78-16.64 311.81-23.81L311.81-23.81L311.81-23.81Q312.13-25.98 312.13-28.29L312.13-28.29L312.13-28.29Q312.13-30.59 311.87-31.55ZM350.98-10.82L350.98-10.82L350.98-10.82Q352.58-9.73 352.58-7.33L352.58-7.33L352.58-7.33Q352.58-4.93 351.36-3.39L351.36-3.39L351.36-3.39Q350.14-1.86 348.16-0.83L348.16-0.83L348.16-0.83Q344.06 1.28 339.65 1.28L339.65 1.28L339.65 1.28Q335.23 1.28 332.64 0.32L332.64 0.32L332.64 0.32Q330.05-0.64 328.32-2.43L328.32-2.43L328.32-2.43Q324.93-5.82 324.93-12.03L324.93-12.03L324.93-12.03Q324.93-21.70 330.18-27.58L330.18-27.58L330.18-27.58Q335.81-33.92 345.60-33.92L345.60-33.92L345.60-33.92Q351.68-33.92 354.69-31.36L354.69-31.36L354.69-31.36Q356.93-29.44 356.93-26.30L356.93-26.30L356.93-26.30Q356.93-15.04 337.47-15.04L337.47-15.04L337.47-15.04Q337.22-13.38 337.22-11.97L337.22-11.97L337.22-11.97Q337.22-9.02 338.53-7.90L338.53-7.90L338.53-7.90Q339.84-6.78 342.27-6.78L342.27-6.78L342.27-6.78Q344.70-6.78 347.30-7.90L347.30-7.90L347.30-7.90Q349.89-9.02 350.98-10.82ZM337.92-17.79L337.92-17.79L337.92-17.79Q342.46-17.79 345.09-20.61L345.09-20.61L345.09-20.61Q347.71-23.30 347.71-27.58L347.71-27.58L347.71-27.58Q347.71-29.06 347.17-29.86L347.17-29.86L347.17-29.86Q346.62-30.66 345.54-30.66L345.54-30.66L345.54-30.66Q344.45-30.66 343.52-30.24L343.52-30.24L343.52-30.24Q342.59-29.82 341.63-28.42L341.63-28.42L341.63-28.42Q339.26-25.22 337.92-17.79ZM379.14-17.98L379.14-17.98L379.14-17.98Q381.44-22.08 381.44-26.24L381.44-26.24L381.44-26.24Q381.44-28.99 379.46-28.99L379.46-28.99L379.46-28.99Q377.92-28.99 376.32-26.37L376.32-26.37L376.32-26.37Q374.66-23.74 374.14-20.35L374.14-20.35L370.82 0L357.57 1.28L364.10-32.64L374.66-33.92L373.50-27.46L373.50-27.46Q376.64-33.92 383.68-33.92L383.68-33.92L383.68-33.92Q387.39-33.92 389.41-32L389.41-32L389.41-32Q391.42-30.08 391.42-26.14L391.42-26.14L391.42-26.14Q391.42-22.21 388.83-19.71L388.83-19.71L388.83-19.71Q386.24-17.22 381.82-17.22L381.82-17.22L381.82-17.22Q379.90-17.22 379.14-17.98ZM391.62-3.07L391.62-3.07L399.55-44.80L412.54-46.08L410.56-36.29L410.56-36.29Q409.86-33.28 408.96-31.17L408.96-31.17L408.96-31.17Q410.37-32.96 413.44-33.66L413.44-33.66L413.44-33.66Q414.34-33.92 415.42-33.92L415.42-33.92L415.42-33.92Q421.38-33.92 424.64-30.30L424.64-30.30L424.64-30.30Q427.90-26.69 427.90-19.71L427.90-19.71L427.90-19.71Q427.90-10.62 422.72-4.93L422.72-4.93L422.72-4.93Q417.15 1.28 407.04 1.28L407.04 1.28L407.04 1.28Q400.06 1.28 394.82-1.02L394.82-1.02L394.82-1.02Q392.96-1.86 391.62-3.07ZM407.87-22.40L404.48-3.65L404.48-3.65Q405.82-2.50 407.49-2.50L407.49-2.50L407.49-2.50Q409.15-2.50 410.11-3.14L410.11-3.14L410.11-3.14Q411.07-3.78 411.78-5.06L411.78-5.06L411.78-5.06Q413.70-8.51 415.23-19.07L415.23-19.07L415.23-19.07Q415.68-22.08 415.68-25.09L415.68-25.09L415.68-25.09Q415.68-28.10 415.01-29.06L415.01-29.06L415.01-29.06Q414.34-30.02 413.06-30.02L413.06-30.02L413.06-30.02Q409.15-30.02 407.87-22.40L407.87-22.40ZM470.85-20.61L483.78-21.76L483.78-21.76Q479.17-11.65 479.17 0.06L479.17 0.06L479.17 0.06Q477.44 1.28 474.91 1.28L474.91 1.28L474.91 1.28Q472.38 1.28 470.78 0.10L470.78 0.10L470.78 0.10Q469.18-1.09 468.86-2.30L468.86-2.30L468.86-2.30Q467.26-0.64 464.67 0.32L464.67 0.32L464.67 0.32Q462.08 1.28 459.33 1.28L459.33 1.28L459.33 1.28Q456.58 1.28 454.18 0.38L454.18 0.38L454.18 0.38Q451.78-0.51 449.92-2.50L449.92-2.50L449.92-2.50Q445.82-6.85 445.82-15.10L445.82-15.10L445.82-15.10Q445.82-27.90 452.67-35.58L452.67-35.58L452.67-35.58Q459.71-43.52 472.19-43.52L472.19-43.52L472.19-43.52Q480.83-43.52 483.90-39.04L483.90-39.04L483.90-39.04Q484.86-37.63 484.86-35.94L484.86-35.94L484.86-35.94Q484.86-34.24 484.13-32.80L484.13-32.80L484.13-32.80Q483.39-31.36 482.24-30.21L482.24-30.21L482.24-30.21Q479.49-27.65 476.10-27.65L476.10-27.65L476.10-27.65Q474.75-27.65 473.47-28.10L473.47-28.10L473.47-28.10Q473.73-30.02 473.73-32.26L473.73-32.26L473.73-32.26Q473.73-34.50 473.57-35.52L473.57-35.52L473.57-35.52Q473.41-36.54 473.02-37.38L473.02-37.38L473.02-37.38Q472.19-39.10 470.37-39.10L470.37-39.10L470.37-39.10Q468.54-39.10 466.53-37.15L466.53-37.15L466.53-37.15Q464.51-35.20 462.91-32L462.91-32L462.91-32Q459.39-24.83 459.39-16.19L459.39-16.19L459.39-16.19Q459.39-12.22 460.93-9.41L460.93-9.41L460.93-9.41Q462.59-6.34 465.54-6.34L465.54-6.34L465.54-6.34Q466.56-6.34 467.49-6.85L467.49-6.85L467.49-6.85Q468.42-7.36 468.80-7.74L468.80-7.74L470.85-20.61ZM512.83-10.82L512.83-10.82L512.83-10.82Q514.43-9.73 514.43-7.33L514.43-7.33L514.43-7.33Q514.43-4.93 513.22-3.39L513.22-3.39L513.22-3.39Q512-1.86 510.02-0.83L510.02-0.83L510.02-0.83Q505.92 1.28 501.50 1.28L501.50 1.28L501.50 1.28Q497.09 1.28 494.50 0.32L494.50 0.32L494.50 0.32Q491.90-0.64 490.18-2.43L490.18-2.43L490.18-2.43Q486.78-5.82 486.78-12.03L486.78-12.03L486.78-12.03Q486.78-21.70 492.03-27.58L492.03-27.58L492.03-27.58Q497.66-33.92 507.46-33.92L507.46-33.92L507.46-33.92Q513.54-33.92 516.54-31.36L516.54-31.36L516.54-31.36Q518.78-29.44 518.78-26.30L518.78-26.30L518.78-26.30Q518.78-15.04 499.33-15.04L499.33-15.04L499.33-15.04Q499.07-13.38 499.07-11.97L499.07-11.97L499.07-11.97Q499.07-9.02 500.38-7.90L500.38-7.90L500.38-7.90Q501.70-6.78 504.13-6.78L504.13-6.78L504.13-6.78Q506.56-6.78 509.15-7.90L509.15-7.90L509.15-7.90Q511.74-9.02 512.83-10.82ZM499.78-17.79L499.78-17.79L499.78-17.79Q504.32-17.79 506.94-20.61L506.94-20.61L506.94-20.61Q509.57-23.30 509.57-27.58L509.57-27.58L509.57-27.58Q509.57-29.06 509.02-29.86L509.02-29.86L509.02-29.86Q508.48-30.66 507.39-30.66L507.39-30.66L507.39-30.66Q506.30-30.66 505.38-30.24L505.38-30.24L505.38-30.24Q504.45-29.82 503.49-28.42L503.49-28.42L503.49-28.42Q501.12-25.22 499.78-17.79ZM548.03 1.28L548.03 1.28L548.03 1.28Q540.29 1.28 540.29-4.74L540.29-4.74L540.29-4.74Q540.35-6.40 540.86-9.22L540.86-9.22L542.02-15.10L542.02-15.10Q543.74-23.42 543.74-25.28L543.74-25.28L543.74-25.28Q543.74-28.99 541.57-28.99L541.57-28.99L541.57-28.99Q537.92-28.99 536.00-19.46L536.00-19.46L532.22 0L519.36 1.28L526.02-32.70L536.51-33.92L535.49-27.65L535.49-27.65Q538.50-33.92 547.71-33.92L547.71-33.92L547.71-33.92Q552.19-33.92 554.08-32.03L554.08-32.03L554.08-32.03Q555.97-30.14 555.97-25.92L555.97-25.92L555.97-25.92Q555.97-21.95 553.92-12.67L553.92-12.67L553.92-12.67Q552.96-8.51 552.96-6.94L552.96-6.94L552.96-6.94Q552.96-5.38 553.82-4.48L553.82-4.48L553.82-4.48Q554.69-3.58 555.97-3.46L555.97-3.46L555.97-3.46Q555.33-1.28 553.12 0L553.12 0L553.12 0Q550.91 1.28 548.03 1.28ZM587.01-10.82L587.01-10.82L587.01-10.82Q588.61-9.73 588.61-7.33L588.61-7.33L588.61-7.33Q588.61-4.93 587.39-3.39L587.39-3.39L587.39-3.39Q586.18-1.86 584.19-0.83L584.19-0.83L584.19-0.83Q580.10 1.28 575.68 1.28L575.68 1.28L575.68 1.28Q571.26 1.28 568.67 0.32L568.67 0.32L568.67 0.32Q566.08-0.64 564.35-2.43L564.35-2.43L564.35-2.43Q560.96-5.82 560.96-12.03L560.96-12.03L560.96-12.03Q560.96-21.70 566.21-27.58L566.21-27.58L566.21-27.58Q571.84-33.92 581.63-33.92L581.63-33.92L581.63-33.92Q587.71-33.92 590.72-31.36L590.72-31.36L590.72-31.36Q592.96-29.44 592.96-26.30L592.96-26.30L592.96-26.30Q592.96-15.04 573.50-15.04L573.50-15.04L573.50-15.04Q573.25-13.38 573.25-11.97L573.25-11.97L573.25-11.97Q573.25-9.02 574.56-7.90L574.56-7.90L574.56-7.90Q575.87-6.78 578.30-6.78L578.30-6.78L578.30-6.78Q580.74-6.78 583.33-7.90L583.33-7.90L583.33-7.90Q585.92-9.02 587.01-10.82ZM573.95-17.79L573.95-17.79L573.95-17.79Q578.50-17.79 581.12-20.61L581.12-20.61L581.12-20.61Q583.74-23.30 583.74-27.58L583.74-27.58L583.74-27.58Q583.74-29.06 583.20-29.86L583.20-29.86L583.20-29.86Q582.66-30.66 581.57-30.66L581.57-30.66L581.57-30.66Q580.48-30.66 579.55-30.24L579.55-30.24L579.55-30.24Q578.62-29.82 577.66-28.42L577.66-28.42L577.66-28.42Q575.30-25.22 573.95-17.79ZM615.17-17.98L615.17-17.98L615.17-17.98Q617.47-22.08 617.47-26.24L617.47-26.24L617.47-26.24Q617.47-28.99 615.49-28.99L615.49-28.99L615.49-28.99Q613.95-28.99 612.35-26.37L612.35-26.37L612.35-26.37Q610.69-23.74 610.18-20.35L610.18-20.35L606.85 0L593.60 1.28L600.13-32.64L610.69-33.92L609.54-27.46L609.54-27.46Q612.67-33.92 619.71-33.92L619.71-33.92L619.71-33.92Q623.42-33.92 625.44-32L625.44-32L625.44-32Q627.46-30.08 627.46-26.14L627.46-26.14L627.46-26.14Q627.46-22.21 624.86-19.71L624.86-19.71L624.86-19.71Q622.27-17.22 617.86-17.22L617.86-17.22L617.86-17.22Q615.94-17.22 615.17-17.98ZM631.26-1.92L631.26-1.92L631.26-1.92Q629.76-3.58 629.09-6.21L629.09-6.21L629.09-6.21Q628.42-8.83 628.42-13.12L628.42-13.12L628.42-13.12Q628.42-17.41 629.89-21.31L629.89-21.31L629.89-21.31Q631.36-25.22 634.05-28.03L634.05-28.03L634.05-28.03Q639.55-33.92 648.64-33.92L648.64-33.92L648.64-33.92Q651.90-33.92 654.27-32.83L654.27-32.83L665.22-33.92L660.48-8.96L660.48-8.96Q660.29-8.19 660.29-6.78L660.29-6.78L660.29-6.78Q660.29-5.38 661.15-4.48L661.15-4.48L661.15-4.48Q662.02-3.58 663.30-3.46L663.30-3.46L663.30-3.46Q662.66-1.28 660.32 0L660.32 0L660.32 0Q657.98 1.28 655.36 1.28L655.36 1.28L655.36 1.28Q652.74 1.28 650.98 0.29L650.98 0.29L650.98 0.29Q649.22-0.70 648.70-2.37L648.70-2.37L648.70-2.37Q647.68-0.77 645.50 0.26L645.50 0.26L645.50 0.26Q643.33 1.28 640.42 1.28L640.42 1.28L640.42 1.28Q637.50 1.28 635.14 0.51L635.14 0.51L635.14 0.51Q632.77-0.26 631.26-1.92ZM644.77-27.90L644.77-27.90L644.77-27.90Q644.03-26.75 643.39-24.80L643.39-24.80L643.39-24.80Q642.75-22.85 641.70-17.63L641.70-17.63L641.70-17.63Q640.64-12.42 640.64-8.70L640.64-8.70L640.64-8.70Q640.64-4.99 641.22-3.90L641.22-3.90L641.22-3.90Q641.79-2.82 642.82-2.82L642.82-2.82L642.82-2.82Q644.86-2.82 646.37-4.77L646.37-4.77L646.37-4.77Q647.87-6.72 648.45-10.18L648.45-10.18L651.84-28.93L651.84-28.93Q650.50-30.08 648.93-30.08L648.93-30.08L648.93-30.08Q647.36-30.08 646.43-29.57L646.43-29.57L646.43-29.57Q645.50-29.06 644.77-27.90ZM669.70-6.40L669.70-6.40L669.70-6.40Q669.70-8.13 670.59-12.48L670.59-12.48L673.98-29.76L670.21-29.76L670.46-31.68L670.46-31.68Q678.14-33.98 685.57-39.62L685.57-39.62L688.64-39.62L687.10-32.64L692.10-32.64L691.52-29.76L686.59-29.76L683.33-12.48L683.33-12.48Q682.50-8.51 682.50-7.17L682.50-7.17L682.50-7.17Q682.50-4.10 685.18-3.46L685.18-3.46L685.18-3.46Q684.54-1.28 682.24 0L682.24 0L682.24 0Q679.94 1.28 676.67 1.28L676.67 1.28L676.67 1.28Q673.41 1.28 671.55-0.77L671.55-0.77L671.55-0.77Q669.70-2.82 669.70-6.40ZM705.47 1.28L705.47 1.28L705.47 1.28Q691.39 1.28 691.39-11.97L691.39-11.97L691.39-11.97Q691.39-21.38 696.58-27.46L696.58-27.46L696.58-27.46Q702.08-33.92 711.62-33.92L711.62-33.92L711.62-33.92Q718.53-33.92 722.05-30.72L722.05-30.72L722.05-30.72Q725.57-27.52 725.57-20.80L725.57-20.80L725.57-20.80Q725.57-10.56 720.06-4.61L720.06-4.61L720.06-4.61Q714.69 1.28 705.47 1.28ZM707.14-26.56L707.14-26.56L707.14-26.56Q706.37-24.83 705.76-22.24L705.76-22.24L705.76-22.24Q705.15-19.65 704.38-15.55L704.38-15.55L704.38-15.55Q703.62-11.46 703.62-6.40L703.62-6.40L703.62-6.40Q703.62-4.74 704.16-3.65L704.16-3.65L704.16-3.65Q704.70-2.56 706.18-2.56L706.18-2.56L706.18-2.56Q707.65-2.56 708.58-3.26L708.58-3.26L708.58-3.26Q709.50-3.97 710.21-5.63L710.21-5.63L710.21-5.63Q711.49-8.58 712.51-14.05L712.51-14.05L712.51-14.05Q713.54-19.52 713.63-21.89L713.63-21.89L713.63-21.89Q713.73-24.26 713.73-26.02L713.73-26.02L713.73-26.02Q713.73-27.78 713.22-28.93L713.22-28.93L713.22-28.93Q712.70-30.08 711.26-30.08L711.26-30.08L711.26-30.08Q709.82-30.08 708.86-29.18L708.86-29.18L708.86-29.18Q707.90-28.29 707.14-26.56ZM749.38-17.98L749.38-17.98L749.38-17.98Q751.68-22.08 751.68-26.24L751.68-26.24L751.68-26.24Q751.68-28.99 749.70-28.99L749.70-28.99L749.70-28.99Q748.16-28.99 746.56-26.37L746.56-26.37L746.56-26.37Q744.90-23.74 744.38-20.35L744.38-20.35L741.06 0L727.81 1.28L734.34-32.64L744.90-33.92L743.74-27.46L743.74-27.46Q746.88-33.92 753.92-33.92L753.92-33.92L753.92-33.92Q757.63-33.92 759.65-32L759.65-32L759.65-32Q761.66-30.08 761.66-26.14L761.66-26.14L761.66-26.14Q761.66-22.21 759.07-19.71L759.07-19.71L759.07-19.71Q756.48-17.22 752.06-17.22L752.06-17.22L752.06-17.22Q750.14-17.22 749.38-17.98Z" fill="url(#editing-shiny-gradient2)"></path></g></g><style>text {
  font-size: 64px;
  font-family: Arial Black;
  dominant-baseline: central;
  text-anchor: middle;
}</style></svg>